<svg width="24" height="24" viewBox="0 0 24 24" fill="none" xmlns="http://www.w3.org/2000/svg">
<path d="M17.5 8.99912C16.6049 8.99896 15.7236 9.22056 14.935 9.64412C14.863 9.45445 14.735 9.29118 14.568 9.17598C14.401 9.06077 14.2029 8.99909 14 8.99912H10C9.73478 8.99912 9.48043 9.10447 9.29289 9.29201C9.10536 9.47955 9 9.7339 9 9.99912V21.9991C9 22.2643 9.10536 22.5187 9.29289 22.7062C9.48043 22.8938 9.73478 22.9991 10 22.9991H14C14.2652 22.9991 14.5196 22.8938 14.7071 22.7062C14.8946 22.5187 15 22.2643 15 21.9991V16.4991C15 16.2339 15.1054 15.9795 15.2929 15.792C15.4804 15.6045 15.7348 15.4991 16 15.4991C16.2652 15.4991 16.5196 15.6045 16.7071 15.792C16.8946 15.9795 17 16.2339 17 16.4991V21.9991C17 22.2643 17.1054 22.5187 17.2929 22.7062C17.4804 22.8938 17.7348 22.9991 18 22.9991H22C22.2652 22.9991 22.5196 22.8938 22.7071 22.7062C22.8946 22.5187 23 22.2643 23 21.9991V14.4991C22.9981 13.041 22.4181 11.6431 21.387 10.6121C20.356 9.58103 18.9581 9.00097 17.5 8.99912ZM21 20.9991H19V16.4991C19 15.7035 18.6839 14.9404 18.1213 14.3778C17.5587 13.8152 16.7956 13.4991 16 13.4991C15.2044 13.4991 14.4413 13.8152 13.8787 14.3778C13.3161 14.9404 13 15.7035 13 16.4991V20.9991H11V10.9991H13V11.7021C12.9999 11.9094 13.0642 12.1116 13.184 12.2807C13.3039 12.4498 13.4733 12.5775 13.6689 12.6462C13.8645 12.7148 14.0765 12.721 14.2758 12.6638C14.475 12.6067 14.6516 12.489 14.781 12.3271C15.2299 11.7572 15.8456 11.3417 16.5421 11.1387C17.2386 10.9356 17.9811 10.9551 18.6659 11.1944C19.3508 11.4337 19.9439 11.8809 20.3623 12.4735C20.7807 13.0661 21.0037 13.7747 21 14.5001V20.9991ZM7 8.99912H3C2.73478 8.99912 2.48043 9.10447 2.29289 9.29201C2.10536 9.47955 2 9.7339 2 9.99912V21.9991C2 22.2643 2.10536 22.5187 2.29289 22.7062C2.48043 22.8938 2.73478 22.9991 3 22.9991H7C7.26522 22.9991 7.51957 22.8938 7.70711 22.7062C7.89464 22.5187 8 22.2643 8 21.9991V9.99912C8 9.7339 7.89464 9.47955 7.70711 9.29201C7.51957 9.10447 7.26522 8.99912 7 8.99912ZM6 20.9991H4V10.9991H6V20.9991ZM5.015 1.54212C4.57709 1.51544 4.13833 1.57816 3.72544 1.72648C3.31255 1.87479 2.93417 2.10559 2.61333 2.40481C2.29249 2.70404 2.03591 3.06544 1.85921 3.467C1.68251 3.86857 1.58938 4.30189 1.58551 4.74059C1.58164 5.1793 1.6671 5.6142 1.83668 6.01882C2.00626 6.42344 2.25642 6.78931 2.57193 7.09416C2.88744 7.399 3.26169 7.63644 3.6719 7.79202C4.08211 7.9476 4.51969 8.01806 4.958 7.99912H4.986C5.42416 8.02415 5.86282 7.95971 6.27527 7.80973C6.68772 7.65974 7.06531 7.42736 7.38504 7.12673C7.70477 6.82609 7.95995 6.46351 8.13502 6.06108C8.31009 5.65864 8.4014 5.22477 8.40337 4.7859C8.40534 4.34703 8.31794 3.91236 8.14649 3.50837C7.97503 3.10437 7.72313 2.73951 7.40611 2.43602C7.08909 2.13253 6.7136 1.89676 6.30252 1.74308C5.89143 1.5894 5.45336 1.52102 5.015 1.54212ZM4.986 5.99912H4.958C4.78504 6.02023 4.60957 6.00412 4.44335 5.95185C4.27714 5.89959 4.12402 5.81238 3.99427 5.69608C3.86452 5.57978 3.76115 5.43708 3.69107 5.27755C3.621 5.11802 3.58586 4.94534 3.588 4.77112C3.588 4.02412 4.148 3.54212 5.015 3.54212C5.18961 3.51914 5.36712 3.5338 5.53559 3.58512C5.70407 3.63644 5.8596 3.72323 5.99175 3.83965C6.1239 3.95607 6.22959 4.09943 6.30174 4.26009C6.37388 4.42076 6.41079 4.595 6.41 4.77112C6.41 5.51712 5.851 5.99912 4.986 5.99912Z" fill="#F8F8F8"/>
</svg>
