<svg width="24" height="24" viewBox="0 0 24 24" fill="none" xmlns="http://www.w3.org/2000/svg">
<path d="M19 11.95C19 9.99995 18.3207 8.34595 16.962 6.98795C15.6033 5.62995 13.9493 4.95062 12 4.94995V2.94995C13.25 2.94995 14.421 3.18762 15.513 3.66295C16.605 4.13828 17.555 4.77995 18.363 5.58795C19.171 6.39595 19.8127 7.34595 20.288 8.43795C20.7633 9.52995 21.0007 10.7006 21 11.95H19ZM15 11.95C15 11.1166 14.7083 10.4083 14.125 9.82495C13.5417 9.24162 12.8333 8.94995 12 8.94995V6.94995C13.3833 6.94995 14.5627 7.43762 15.538 8.41295C16.5133 9.38828 17.0007 10.5673 17 11.95H15ZM19.95 21C17.8 21 15.704 20.525 13.662 19.575C11.62 18.625 9.81167 17.3583 8.237 15.775C6.66233 14.1916 5.39567 12.379 4.437 10.337C3.47833 8.29495 2.99933 6.19928 3 4.04995V3.52495C3 3.34162 3.01667 3.16662 3.05 2.99995H8.9L9.825 8.02495L6.975 10.9C7.675 12.1 8.55433 13.225 9.613 14.275C10.6717 15.325 11.834 16.2333 13.1 17L16 14.1L21 15.1V20.95C20.8333 20.9666 20.6583 20.9793 20.475 20.988C20.2917 20.9966 20.1167 21.0006 19.95 21Z" fill="#F8F8F8"/>
</svg>
